<?xml version="1.0" encoding="utf-8"?>
<!-- Generator: Adobe Illustrator 24.0.2, SVG Export Plug-In . SVG Version: 6.00 Build 0)  -->
<svg version="1.1" id="Layer_1" xmlns="http://www.w3.org/2000/svg" xmlns:xlink="http://www.w3.org/1999/xlink" x="0px" y="0px"
	 viewBox="0 0 792.5 612" style="enable-background:new 0 0 792.5 612;" xml:space="preserve">
<style type="text/css">
	.st0{fill:#2D456D;}
	.st1{fill-rule:evenodd;clip-rule:evenodd;fill:#2D456D;}
</style>
<title>municipio-leon</title>
<g>
	<g>
		<path class="st0" d="M9.5,329.7L9.5,329.7V183.8h178.9v145l0,0c0,0.8-0.8,19.7-10.2,37c-4.7,8.7-11.8,17.3-21.3,23.6
			c-10.2,6.3-18.9,11-26.8,15.8h-0.8c-6.3,3.9-12.6,7.1-18.1,10.2c-4.7,2.4-7.9,5.5-11.8,7.9c-8.7-6.3-18.1-11.8-30.7-18.9l0,0l0,0
			l0,0c-7.9-4.7-17.3-9.5-27.6-15.8c-10.2-6.3-17.3-15-21.3-23.6C10.2,348.6,9.5,329.7,9.5,329.7 M0,178.3v149.8l0,0
			c0,0.8,0.8,21.3,11,41.8c5.5,10.2,13.4,20.5,25.2,27.6c10.2,6.3,19.7,11.8,27.6,15.8l0,0l0,0l0,0c13.4,7.1,24.4,14.2,32.3,20.5
			l3.2,2.4l3.2-2.4c3.9-3.2,8.7-6.3,14.2-10.2c5.5-3.2,11.8-6.3,18.1-10.2h0.8c7.9-4.7,16.6-9.5,27.6-15.8
			c11.8-7.1,19.7-17.3,25.2-27.6c10.2-20.5,11-41,11-41l0,0V178.3v-4.7h-4.7H4.7H0V178.3z"/>
		<path class="st1" d="M47.3,318.6c-7.9-10.2-9.5-26.8-6.3-39.4c-6.3,5.5-8.7,11.8-8.7,11.8c-0.8-4.7,0.8-11.8,2.4-17.3
			c-3.2,0-6.3-2.4-6.3-6.3c12.6,3.2,11.8-14.2,33.9-12.6c-11,4.7-15,8.7-22.9,18.9c0,0,6.3-3.9,11.8-5.5
			C44.1,284.7,43.3,305.2,47.3,318.6 M104.8,252.4c-6.3,0.8-13.4,0.8-18.9,3.2c-3.2-3.9-8.7-4.7-14.2-3.9c-9.5,2.4-12.6,18.1-6.3,26
			c-3.2-0.8-6.3-2.4-8.7-6.3C51.2,280,42.6,303.6,56,317c-4.7-10.2-0.8-28.4,11-37.8c-7.9-17.3,6.3-32.3,16.6-17.3
			c0,0-0.8,0.8-3.2,3.2c-7.1-4.7-11.8,4.7-10.2,11.8c2.4-3.9,10.2-5.5,15.8-6.3c-7.9,6.3-9.5,16.6-9.5,22.1
			c3.2-10.2,9.5-18.9,20.5-19.7C95.4,268.2,93,254.8,104.8,252.4z M120.6,265.8c4.7-5.5,12.6-4.7,12.6-4.7s0.8,4.7-1.6,8.7
			c-6.3-2.4-7.9-3.2-6.3-4.7C123,265,120.6,265.8,120.6,265.8z M115.9,363.5c10.2-9.5,14.2-22.9,11.8-33.9c0.8,0,2.4-0.8,2.4-0.8
			c-1.6-0.8-5.5-6.3-7.9-11.8c-10.2-4.7-8.7-11.8-8.7-11.8c3.2,4.7,7.9,6.3,8.7,6.3c5.5,0.8,11.8,0.8,17.3-3.9
			c7.1-0.8,13.4,11,15,11c3.2-3.2,6.3-6.3,7.9-9.5c0.8-0.8-0.8-2.4,0-3.2c1.6-1.6,3.2-3.9,3.9-6.3c-2.4,1.6-5.5,3.2-8.7,3.2
			c-6.3,0-10.2-4.7-10.2-10.2c0-4.7,2.4-8.7,6.3-10.2c4.7-1.6,9.5-0.8,11.8,2.4c1.6,0.8,3.2,2.4,3.2,4.7c3.2-6.3,0-6.3,2.4-9.5
			c0.8-1.6,2.4-3.2,2.4-7.1c0-0.8,0-3.2-3.2-4.7c-3.2-1.6-3.9-1.6-3.9-3.2c0-0.8,0.8-0.8,2.4-0.8c1.6,0.8,3.2,0.8,4.7-1.6
			c0.8-1.6,0.8-3.2,0.8-3.2s-14.2,0-18.9,0s-7.9,3.2-7.9,3.2c-7.9-10.2-23.6-12.6-37-12.6c-10.2,7.1-6.3,16.6-0.8,22.9
			c-4.7,0.8-9.5,2.4-13.4,4.7c-16.6,9.5-21.3,35.5-4.7,46.5c-1.6-4.7-2.4-11.8,0-15.8C98.5,328.1,121.4,332,115.9,363.5z"/>
		<path class="st1" d="M36.3,292.6c-10.2,20.5-4.7,52,6.3,63.1c-2.4-8.7-0.8-14.2-0.8-19.7c3.2,15.8,13.4,26,25.2,32.3
			c0,0-3.2-6.3-4.7-14.2c16.6,10.2,39.4,15.8,35.5,42.6c17.3-21.3,18.1-48.1,0.8-67c3.2,14.2-0.8,15.8-4.7,12.6
			C78,332,65.4,304.4,76.5,283.9c-26.8,26-8.7,52.8,6.3,71.7c-8.7-4.7-21.3-15.8-28.4-34.7c-0.8,4.7-0.8,9.5-0.8,14.2
			C45.7,329.7,35.5,311.5,36.3,292.6"/>
		<path class="st1" d="M112.7,245.3c0.8,1.6,3.2,2.4,3.2,4.7c-7.9-1.6-22.9-3.2-30.7-3.2c1.6,1.6,3.2,3.2,3.2,5.5
			c-6.3-6.3-19.7-6.3-31.5,0.8c2.4-2.4,4.7-4.7,6.3-6.3c0-1.6-0.8-3.9-0.8-5.5c9.5-3.2,19.7-4.7,30.7-5.5c11.8,0,22.1,0.8,31.5,3.9
			c0,1.6,0,3.2-0.8,4.7c4.7,3.9,6.3,6.3,7.9,9.5C125.3,248.5,123,246.9,112.7,245.3 M104,225.6c1.6,0.8,2.4,1.6,3.9,3.2
			c1.6-0.8,3.2-1.6,4.7-1.6c-1.6-0.8-3.2-1.6-3.9-3.2C107.2,224.8,106.4,225.6,104,225.6z M93.8,220.1c-3.2,0-4.7,2.4-4.7,4.7
			c0,3.2,2.4,4.7,4.7,4.7c2.4,0,4.7-2.4,4.7-4.7C98.5,221.7,96.9,220.1,93.8,220.1z M82.8,226.4c-1.6,0.8-2.4,1.6-3.9,2.4
			c-1.6-0.8-3.2-1.6-4.7-1.6c1.6-0.8,3.2-1.6,3.9-3.2C80.4,225.6,81.2,226.4,82.8,226.4z M67.8,228.8c-0.8,0-1.6,0.8-1.6,1.6
			c0,0.8,0.8,1.6,1.6,1.6c0.8,0,1.6-0.8,1.6-1.6C69.4,229.6,68.6,228.8,67.8,228.8z M119,226.4c-0.8,0-1.6,0.8-1.6,1.6
			s0.8,1.6,1.6,1.6c0.8,0,1.6-0.8,1.6-1.6C120.6,228,120.6,226.4,119,226.4z M93,193.3L93,193.3c-3.9,5.5-4.7,7.9-3.2,11.8
			c-0.8,0-0.8-0.8-1.6-0.8c-2.4,0-3.9,1.6-3.9,3.9c0,2.4,1.6,3.9,3.9,3.9c0.8,0,1.6-0.8,3.2-0.8c1.6,7.9-11.8,8.7-16.6,3.9
			c0.8-0.8,0.8-1.6,0.8-3.2c0-2.4-1.6-3.9-3.9-3.2c-2.4,0-3.9,1.6-3.9,3.9c0,2.4,1.6,3.2,3.9,3.9c0.8,2.4,1.6,6.3-3.2,7.9
			c-5.5,0.8-9.5-0.8-10.2-3.2c1.6,0,3.2-1.6,3.2-3.2s-1.6-3.2-3.2-3.2c-1.6,0-3.2,0.8-3.2,3.2c-1.6,0-4.7-0.8-7.9-1.6
			c0,0,10.2,8.7,14.2,14.2c0.8,2.4,1.6,4.7,2.4,7.9c9.5-3.2,19.7-5.5,31.5-5.5s22.1,0.8,31.5,3.9c0.8-3.2,0.8-6.3,2.4-8.7
			c3.2-6.3,14.2-15,14.2-15c-3.9,0.8-6.3,0.8-7.9,0.8c0-1.6-1.6-3.2-3.2-3.2c-1.6,0-3.2,1.6-3.2,3.2c0,1.6,0.8,3.2,3.2,3.2
			c-0.8,2.4-4.7,4.7-10.2,3.9c-4.7-0.8-3.9-4.7-3.2-7.9c2.4,0,3.9-1.6,3.9-3.9s-1.6-3.2-3.9-3.2c-2.4,0-3.9,1.6-3.9,3.9
			c0,0.8,0.8,1.6,0.8,3.2c-4.7,5.5-18.1,4.7-16.6-3.2c0.8,0.8,1.6,0.8,2.4,0.8c2.4,0,3.9-1.6,3.9-3.9s-1.6-3.9-3.9-3.9
			c-0.8,0-0.8,0-1.6,0.8C98.5,200.4,97.7,198.8,93,193.3z"/>
	</g>
	<g>
		<rect x="259.7" y="156.3" class="st0" width="8.7" height="298.7"/>
		<path class="st0" d="M765.7,355.7h26.8V226.4h-27.6v48.1c0,6.3,0,12.6,0,18.9c0,6.3,0,12.6,0,18.9l0,0c-3.9-5.5-7.9-11-11.8-16.6
			c-3.9-5.5-7.9-11-12.6-16.6l-38.6-52h-26.8v129.3h27.6v-48.1c0-6.3,0-12.6,0-18.9c0-6.3,0-12.6,0-18.9l0,0
			c3.9,5.5,7.9,11,11.8,16.6c3.9,5.5,7.9,11,12.6,16.6L765.7,355.7z M614.4,184.6h-24.4l-15,29.2h18.9L614.4,184.6z M589.9,358
			c7.9,0,15-0.8,22.1-3.2c7.1-2.4,13.4-5.5,18.9-9.5s10.2-8.7,14.2-14.2c3.9-5.5,7.1-11.8,9.5-18.1c2.4-7.1,3.2-14.2,3.2-21.3
			c0-7.9-0.8-15-3.2-21.3c-2.4-7.1-5.5-12.6-9.5-18.1c-3.9-5.5-8.7-10.2-14.2-14.2c-5.5-3.9-11.8-7.1-18.9-9.5
			c-7.1-2.4-14.2-3.2-22.1-3.2s-15,0.8-22.1,3.2c-7.1,2.4-13.4,5.5-18.9,9.5c-5.5,3.9-10.2,8.7-14.2,14.2
			c-3.9,5.5-7.1,11.8-9.5,18.1c-2.4,7.1-3.2,14.2-3.2,21.3c0,7.9,0.8,15,3.2,21.3c2.4,7.1,5.5,12.6,9.5,18.1
			c3.9,5.5,8.7,10.2,14.2,14.2c5.5,3.9,11.8,7.1,18.9,9.5C575,357.2,582.1,358,589.9,358z M589.9,332c-5.5,0-11-0.8-15.8-3.2
			c-4.7-2.4-8.7-4.7-12.6-8.7c-3.9-3.9-6.3-7.9-7.9-12.6c-1.6-4.7-3.2-10.2-3.2-15.8c0-5.5,0.8-11,3.2-15.8
			c1.6-4.7,4.7-9.5,7.9-12.6c3.2-3.9,7.9-6.3,12.6-8.7c4.7-2.4,10.2-3.2,15.8-3.2s11,0.8,15.8,3.2c4.7,2.4,8.7,4.7,12.6,8.7
			c3.9,3.9,6.3,7.9,7.9,12.6c1.6,4.7,3.2,10.2,3.2,15.8c0,5.5-0.8,11-3.2,15.8c-1.6,4.7-4.7,9.5-7.9,12.6c-3.2,3.9-7.9,6.3-12.6,8.7
			C601,331.2,595.5,332,589.9,332z M427.6,355.7h82v-25.2H456v-30.7h44.1v-23.6H456v-25.2h51.2v-25.2h-79.6V355.7z M328.3,355.7
			h85.1v-25.2h-56.7v-104h-28.4C328.3,226.4,328.3,355.7,328.3,355.7z"/>
		<path class="st0" d="M781.5,398.2c0-0.8,0.8-0.8,0.8-1.6c0-0.8,0.8-0.8,0.8-1.6c0-0.8,0.8-0.8,0.8-1.6l0,0c0,0.8,0,0.8,0,1.6
			c0,0.8,0,0.8,0,1.6s0,0.8,0,1.6v4.7h-6.3l0,0L781.5,398.2z M771.2,406.9h12.6v5.5h4.7v-5.5h3.9V403h-3.9v-15.8h-3.9L771.2,406.9
			L771.2,406.9z M752.3,412.4L752.3,412.4h17.3v-3.9H761l0,0l3.9-4.7c0.8-0.8,1.6-2.4,2.4-3.2c0.8-0.8,0.8-2.4,1.6-3.2
			c0-0.8,0.8-2.4,0.8-3.2c0-1.6,0-2.4-0.8-3.2c-0.8-0.8-0.8-1.6-1.6-2.4c-0.8-0.8-1.6-0.8-2.4-1.6c-0.8,0-2.4-0.8-3.2-0.8
			s-1.6,0-2.4,0c-0.8,0-1.6,0-2.4,0.8c-0.8,0-0.8,0.8-1.6,0.8v3.9c0.8-0.8,1.6-0.8,1.6-0.8c0.8,0,1.6-0.8,2.4-0.8c0.8,0,1.6,0,1.6,0
			c0.8,0,1.6,0,2.4,0.8c0.8,0,0.8,0.8,1.6,1.6c0,0.8,0.8,1.6,0.8,2.4s0,1.6-0.8,2.4c0,0.8-0.8,1.6-1.6,2.4c-0.8,0.8-1.6,1.6-2.4,3.2
			L752.3,412.4z M731,399.8c0,2.4,0,3.9,0.8,5.5c0,1.6,0.8,3.2,1.6,3.9c0.8,0.8,0.8,1.6,1.6,1.6c0.8,0.8,1.6,0.8,2.4,0.8
			c0.8,0,1.6,0,2.4,0c0.8,0,1.6,0,2.4,0c0.8,0,1.6-0.8,2.4-0.8c0.8-0.8,1.6-0.8,1.6-1.6c0.8-0.8,1.6-2.4,1.6-3.9
			c0-1.6,0.8-3.2,0.8-5.5c0-2.4,0-3.9-0.8-5.5c-0.8-1.6-0.8-3.2-1.6-3.9s-0.8-1.6-1.6-1.6c-0.8-0.8-1.6-0.8-2.4-0.8
			c-0.8,0-1.6,0-2.4,0s-1.6,0-2.4,0c-0.8,0-1.6,0.8-2.4,0.8c-0.8,0.8-1.6,0.8-1.6,1.6c-0.8,0.8-1.6,2.4-1.6,3.9
			C731,395.9,731,397.4,731,399.8z M735.8,399.8c0-0.8,0-2.4,0-3.2c0-0.8,0-1.6,0.8-2.4c0-0.8,0.8-1.6,0.8-1.6
			c0-0.8,0.8-0.8,1.6-0.8c0.8,0,0.8-0.8,1.6-0.8s1.6,0,1.6,0.8c0.8,0,0.8,0.8,1.6,0.8c0,0.8,0.8,0.8,0.8,1.6c0,0.8,0,1.6,0.8,2.4
			c0,0.8,0,1.6,0,3.2c0,0.8,0,2.4,0,3.2c0,0.8,0,1.6-0.8,2.4c0,0.8-0.8,1.6-0.8,1.6c0,0.8-0.8,0.8-1.6,0.8s-0.8,0.8-1.6,0.8
			s-1.6,0-1.6-0.8c-0.8,0-0.8-0.8-1.6-0.8c0-0.8-0.8-0.8-0.8-1.6c0-0.8,0-1.6-0.8-2.4C735.8,402.2,735.8,400.6,735.8,399.8z
			 M709.7,412.4L709.7,412.4h17.3v-3.9h-8.7l0,0l3.9-4.7c0.8-0.8,1.6-2.4,2.4-3.2c0.8-0.8,0.8-2.4,1.6-3.2c0-0.8,0.8-2.4,0.8-3.2
			c0-1.6,0-2.4-0.8-3.2c-0.8-0.8-0.8-1.6-1.6-2.4c-0.8-0.8-1.6-0.8-2.4-1.6c-0.8,0-2.4-0.8-3.2-0.8s-1.6,0-2.4,0
			c-0.8,0-1.6,0-2.4,0.8c-0.8,0-0.8,0.8-1.6,0.8v3.9c0.8-0.8,1.6-0.8,1.6-0.8c0.8,0,1.6-0.8,2.4-0.8c0.8,0,1.6,0,1.6,0
			c0.8,0,1.6,0,2.4,0.8c0.8,0,0.8,0.8,1.6,1.6c0,0.8,0.8,1.6,0.8,2.4s0,1.6-0.8,2.4c0,0.8-0.8,1.6-1.6,2.4s-1.6,1.6-2.4,3.2
			L709.7,412.4z M700.3,404.5h8.7v-3.9h-8.7V404.5z M688.5,412.4h4.7v-26l-10.2,3.9v3.9l5.5-2.4
			C688.5,391.9,688.5,412.4,688.5,412.4z M660.9,412.4L660.9,412.4h17.3v-3.9h-8.7l0,0l3.9-4.7c0.8-0.8,1.6-2.4,2.4-3.2
			c0.8-0.8,0.8-2.4,1.6-3.2c0-0.8,0.8-2.4,0.8-3.2c0-1.6,0-2.4-0.8-3.2c-0.8-0.8-0.8-1.6-1.6-2.4c-0.8-0.8-1.6-0.8-2.4-1.6
			c-0.8,0-2.4-0.8-3.2-0.8s-1.6,0-2.4,0c-0.8,0-1.6,0-2.4,0.8c-0.8,0-0.8,0.8-1.6,0.8v3.9c0.8-0.8,1.6-0.8,1.6-0.8
			c0.8,0,1.6-0.8,2.4-0.8c0.8,0,1.6,0,1.6,0c0.8,0,1.6,0,2.4,0.8c0.8,0,0.8,0.8,1.6,1.6c0,0.8,0.8,1.6,0.8,2.4s0,1.6-0.8,2.4
			c0,0.8-0.8,1.6-1.6,2.4s-1.6,1.6-2.4,3.2L660.9,412.4z M640.4,399.8c0,2.4,0,3.9,0.8,5.5c0,1.6,0.8,3.2,1.6,3.9
			c0.8,0.8,0.8,1.6,1.6,1.6c0.8,0.8,1.6,0.8,2.4,0.8s1.6,0,2.4,0s1.6,0,2.4,0c0.8,0,1.6-0.8,2.4-0.8c0.8-0.8,1.6-0.8,1.6-1.6
			c0.8-0.8,1.6-2.4,1.6-3.9c0-1.6,0.8-3.2,0.8-5.5c0-2.4,0-3.9-0.8-5.5c-0.8-1.6-0.8-3.2-1.6-3.9s-0.8-1.6-1.6-1.6
			c-0.8-0.8-1.6-0.8-2.4-0.8s-1.6,0-2.4,0c-0.8,0-1.6,0-2.4,0c-0.8,0-1.6,0.8-2.4,0.8c-0.8,0.8-1.6,0.8-1.6,1.6
			c-0.8,0.8-1.6,2.4-1.6,3.9C640.4,395.9,640.4,397.4,640.4,399.8z M644.3,399.8c0-0.8,0-2.4,0-3.2c0-0.8,0-1.6,0.8-2.4
			c0-0.8,0.8-1.6,0.8-1.6c0-0.8,0.8-0.8,1.6-0.8s0.8-0.8,1.6-0.8c0.8,0,1.6,0,1.6,0.8c0.8,0,0.8,0.8,1.6,0.8c0,0.8,0.8,0.8,0.8,1.6
			c0,0.8,0,1.6,0.8,2.4c0,0.8,0,1.6,0,3.2c0,0.8,0,2.4,0,3.2c0,0.8,0,1.6-0.8,2.4c0,0.8-0.8,1.6-0.8,1.6c0,0.8-0.8,0.8-1.6,0.8
			s-0.8,0.8-1.6,0.8c-0.8,0-1.6,0-1.6-0.8c-0.8,0-0.8-0.8-1.6-0.8c0-0.8-0.8-0.8-0.8-1.6c0-0.8,0-1.6-0.8-2.4
			C644.3,402.2,644.3,400.6,644.3,399.8z M619.1,412.4L619.1,412.4h17.3v-3.9h-8.7l0,0l3.2-4.7c0.8-0.8,1.6-2.4,2.4-3.2
			c0.8-0.8,0.8-2.4,1.6-3.2c0-0.8,0.8-2.4,0.8-3.2c0-1.6,0-2.4-0.8-3.2c-0.8-0.8-0.8-1.6-1.6-2.4c-1.6-0.8-2.4-0.8-3.2-1.6
			c-0.8,0-2.4-0.8-3.2-0.8s-1.6,0-2.4,0c-0.8,0-1.6,0-2.4,0.8c-0.8,0-0.8,0.8-1.6,0.8v3.9c0.8-0.8,1.6-0.8,1.6-0.8
			c0.8,0,1.6-0.8,2.4-0.8s1.6,0,1.6,0c0.8,0,1.6,0,2.4,0.8c0.8,0,0.8,0.8,1.6,1.6c0,0.8,0.8,1.6,0.8,2.4s0,1.6-0.8,2.4
			c0,0.8-0.8,1.6-1.6,2.4s-1.6,1.6-2.4,3.2L619.1,412.4z M595.5,413.2c1.6,0,3.2,0,3.9-0.8c1.6-0.8,2.4-0.8,3.9-1.6
			c0.8-0.8,2.4-1.6,3.2-3.2c0.8-0.8,1.6-2.4,1.6-3.9c0.8-1.6,0.8-2.4,0.8-3.9s0-3.2-0.8-3.9c-0.8-1.6-0.8-2.4-1.6-3.9
			c-0.8-0.8-1.6-2.4-3.2-3.2c-0.8-0.8-2.4-1.6-3.9-1.6c-1.6-0.8-2.4-0.8-3.9-0.8s-3.2,0-3.9,0.8c-1.6,0.8-2.4,0.8-3.9,1.6
			c-0.8,0.8-2.4,1.6-3.2,3.2c-0.8,0.8-1.6,2.4-1.6,3.9c-0.8,1.6-0.8,2.4-0.8,3.9s0,3.2,0.8,3.9c0.8,1.6,0.8,2.4,1.6,3.9
			c0.8,0.8,1.6,2.4,3.2,3.2c0.8,0.8,2.4,1.6,3.9,1.6C592.3,412.4,593.9,413.2,595.5,413.2z M595.5,409.3c-1.6,0-2.4,0-3.2-0.8
			c-0.8-0.8-1.6-0.8-2.4-1.6c-0.8-0.8-1.6-1.6-1.6-3.2c-0.8-0.8-0.8-2.4-0.8-3.2c0-1.6,0-2.4,0.8-3.2s0.8-2.4,1.6-3.2
			c0.8-0.8,1.6-1.6,2.4-1.6c0.8-0.8,2.4-0.8,3.2-0.8c1.6,0,2.4,0,3.2,0.8c0.8,0.8,1.6,0.8,2.4,1.6c0.8,0.8,1.6,1.6,1.6,3.2
			c0.8,0.8,0.8,2.4,0.8,3.2c0,1.6,0,2.4-0.8,3.2c-0.8,0.8-0.8,2.4-1.6,3.2c-0.8,0.8-1.6,1.6-2.4,1.6
			C597.8,408.5,596.2,409.3,595.5,409.3z M567.9,412.4h4.7v-21.3h8.7v-3.9H560v3.9h7.9V412.4z M538.7,412.4v-11c0-1.6,0-2.4,0-3.9
			c0-1.6,0-2.4,0-3.9l0,0c0.8,0.8,1.6,2.4,2.4,3.2c0.8,0.8,1.6,2.4,2.4,3.2l9.5,12.6h3.9v-25.2h-4.7v11c0,1.6,0,2.4,0,3.9
			c0,1.6,0,2.4,0,3.9l0,0c-0.8-0.8-1.6-2.4-2.4-3.2c-0.8-0.8-1.6-2.4-2.4-3.2l-9.5-12.6H534v25.2H538.7z M514.3,412.4H530v-3.9h-11
			v-7.1h9.5v-3.9H519v-6.3h11v-3.9h-15v25.2H514.3z M504.8,412.4h4.7v-25.2h-4.7V412.4z M474.9,412.4h3.9v-12.6c0-0.8,0-1.6,0-3.2
			c0-0.8,0-1.6,0-2.4l0,0c0.8,0.8,0.8,1.6,1.6,2.4c0.8,0.8,0.8,1.6,1.6,2.4l4.7,7.1l4.7-7.1c0.8-0.8,0.8-1.6,1.6-2.4
			c0.8-0.8,0.8-1.6,1.6-2.4l0,0c0,0.8,0,1.6,0,2.4c0,0.8,0,1.6,0,3.2v12.6h4.7v-25.2h-3.9l-8.7,11.8l-8.7-11.8h-3.9v25.2H474.9z
			 M456.7,399c0.8-0.8,0.8-2.4,1.6-3.2c0.8-0.8,0.8-2.4,1.6-3.2l0,0c0.8,0.8,0.8,2.4,1.6,3.2c0.8,0.8,0.8,2.4,1.6,3.2l1.6,3.9h-7.9
			L456.7,399z M461.5,387.2h-3.9l-10.2,25.2h4.7l2.4-6.3h11l2.4,6.3h4.7L461.5,387.2z M436.2,412.4h4.7v-21.3h8.7v-3.9h-21.3v3.9
			h8.7L436.2,412.4L436.2,412.4z M407.1,412.4v-11c0-1.6,0-2.4,0-3.9c0-1.6,0-2.4,0-3.9l0,0c0.8,0.8,1.6,2.4,2.4,3.2
			c0.8,0.8,1.6,2.4,2.4,3.2l9.5,12.6h3.9v-25.2h-3.9v11c0,1.6,0,2.4,0,3.9c0,1.6,0,2.4,0,3.9l0,0c-0.8-0.8-1.6-2.4-2.4-3.2
			c-0.8-0.8-1.6-2.4-2.4-3.2l-9.5-12.6h-4.7v25.2H407.1z M377.9,408.5c0.8,0.8,1.6,1.6,2.4,2.4s1.6,0.8,3.2,1.6
			c0.8,0,2.4,0.8,3.9,0.8c1.6,0,2.4,0,3.9-0.8c0.8,0,2.4-0.8,3.2-1.6c0.8-0.8,1.6-1.6,2.4-2.4c0.8-0.8,0.8-1.6,0.8-2.4
			c0-0.8,0.8-1.6,0.8-3.2c0-0.8,0-2.4,0-3.2v-13.4h-3.9v13.4c0,1.6,0,2.4,0,3.2c0,0.8-0.8,1.6-0.8,2.4c-0.8,0.8-0.8,1.6-1.6,1.6
			c-0.8,0.8-1.6,0.8-3.2,0.8c-0.8,0-1.6,0-2.4,0c-0.8,0-1.6-0.8-1.6-0.8c-0.8-0.8-0.8-0.8-0.8-1.6c0-0.8-0.8-0.8-0.8-1.6
			c0-0.8,0-1.6,0-1.6c0-0.8,0-1.6,0-2.4v-13.4h-4.7v13.4c0,0.8,0,2.4,0,3.2c0,0.8,0,1.6,0.8,3.2
			C377.1,407.7,377.9,408.5,377.9,408.5z M359.8,412.4h4.7v-11.8l9.5-14.2h-4.7l-3.9,5.5c-0.8,0.8-0.8,1.6-1.6,2.4
			c-0.8,0.8-0.8,1.6-1.6,2.4l0,0c-0.8-0.8-0.8-1.6-1.6-2.4c-0.8-0.8-0.8-1.6-1.6-2.4l-3.9-4.7h-5.5l9.5,14.2L359.8,412.4
			L359.8,412.4z M338.5,399c0.8-0.8,0.8-2.4,1.6-3.2c0.8-0.8,0.8-2.4,1.6-3.2l0,0c0.8,0.8,0.8,2.4,1.6,3.2c0.8,0.8,0.8,2.4,1.6,3.2
			l1.6,3.9h-7.9L338.5,399z M343.2,387.2h-3.9l-10.2,25.2h4.7l2.4-6.3h11l2.4,6.3h4.7L343.2,387.2z"/>
	</g>
</g>
</svg>
